<?xml version="1.0" encoding="iso-8859-1"?>
<!-- Generator: Adobe Illustrator 19.0.0, SVG Export Plug-In . SVG Version: 6.00 Build 0)  -->
<svg version="1.1" id="Capa_1" xmlns="http://www.w3.org/2000/svg" xmlns:xlink="http://www.w3.org/1999/xlink" x="0px" y="0px"
	 viewBox="0 0 488.112 488.112" style="enable-background:new 0 0 488.112 488.112;" xml:space="preserve">
<path style="fill:#333333;" d="M332.056,216.112v-120c0.01-28.165-13.462-54.634-36.24-71.2c-30.858-22.442-72.662-22.442-103.52,0
	c-22.778,16.566-36.25,43.035-36.24,71.2v120"/>
<path style="fill:#ECC19C;" d="M284.056,216.112l-40,56l-40-56v-46.664h80V216.112z"/>
<g>
	<path style="fill:#F0D0B4;" d="M76.056,376.112v102h24h40v-102H76.056z"/>
	<path style="fill:#F0D0B4;" d="M348.056,478.112h40h24v-102h-64V478.112z"/>
</g>
<path style="fill:#E6E6E6;" d="M345.608,214.112h-61.552l-40,56l-40-56h-61.552c-33.104,0-63.448,23.032-66.448,56v106h64v102h208
	v-102h64v-106C409.056,237.144,378.712,214.112,345.608,214.112z"/>
<path style="fill:#F0D0B4;" d="M268.056,56.112c-11.464,28.664-55.792,45-80,51.96v35.88c0,30.928,25.072,56,56,56s56-25.072,56-56
	V97.504C285.28,87.439,274.076,72.947,268.056,56.112z"/>
<g>
	<path style="fill:#29485A;" d="M300.056,96.112h20c15.464,0,28,12.536,28,28s-12.536,28-28,28h-20l0,0V96.112L300.056,96.112z"/>
	<path style="fill:#29485A;" d="M188.056,152.112h-20c-15.464,0-28-12.536-28-28s12.536-28,28-28h20l0,0V152.112L188.056,152.112z"
		/>
</g>
<g>
	<path style="fill:#999999;" d="M204.056,384.112l-32-56l24-40l-32-24l40-48V384.112z"/>
	<path style="fill:#999999;" d="M284.056,384.112l32-56l-24-40l32-24l-40-48V384.112z"/>
</g>
<path style="fill:#BDCCD4;" d="M244.056,270.112l40-56v264h-80v-264L244.056,270.112z"/>
<path d="M142.504,208.112c-37.575-0.967-69.765,26.705-74.448,64v208c0,4.418,3.582,8,8,8h336c4.418,0,8-3.582,8-8V271.384
	c-3.2-35.472-35.912-63.272-74.4-63.272h-5.6v-54.096c16.511-11.005,20.975-33.311,9.97-49.822c-2.659-3.99-6.09-7.407-10.09-10.05
	c-0.968-52.953-44.679-95.096-97.632-94.128c-51.59,0.943-93.185,42.538-94.128,94.128c-16.555,10.938-21.108,33.226-10.17,49.782
	c2.643,4,6.06,7.431,10.05,10.09v54.096H142.504z M142.504,224.112h44.472l-29.064,34.872c-2.831,3.392-2.377,8.437,1.015,11.268
	c0.107,0.09,0.217,0.176,0.329,0.26l26.232,19.672L165.2,323.992c-1.49,2.482-1.524,5.575-0.088,8.088l30.944,54.16v85.872h-48v-152
	h-16v48h-48V272.84C86.504,245.512,112.192,224.112,142.504,224.112L142.504,224.112z M292.056,238.208l20.464,24.56l-20.464,15.344
	V238.208z M306.784,328.216l-14.728,25.768v-50.328L306.784,328.216z M212.304,199.52c19.689,11.189,43.815,11.189,63.504,0
	c0.088-0.048,0.16-0.112,0.248-0.168v14.192l-32,44.8l-32-44.8v-14.192C212.144,199.408,212.216,199.472,212.304,199.52
	L212.304,199.52z M196.056,353.984l-14.728-25.768l14.728-24.56V353.984z M175.592,262.784l20.464-24.576v39.904L175.592,262.784z
	 M212.056,241.08l25.488,35.68c2.846,3.596,8.068,4.205,11.665,1.359c0.504-0.399,0.96-0.855,1.359-1.359l25.488-35.68v231.032h-64
	L212.056,241.08z M292.056,143.944c-0.005,8.493-2.263,16.833-6.544,24.168h-41.456v16h26.096c-0.76,0.496-1.48,1.056-2.28,1.512
	c-23.016,13.153-52.338,5.158-65.491-17.859c-4.146-7.255-6.326-15.466-6.325-23.821v-29.92
	c22.28-6.928,54.104-19.896,71.048-40.888c6.043,11.343,14.573,21.172,24.952,28.752V143.944z M84.056,384.112h48v88h-48V384.112z
	 M356.056,472.112v-88h48v88H356.056z M404.056,272.112v96h-48v-48h-16v152h-48V386.24L323,332.08
	c1.436-2.513,1.402-5.606-0.088-8.088l-20.288-33.808l26.232-19.672c3.536-2.65,4.254-7.664,1.604-11.199
	c-0.084-0.112-0.17-0.221-0.26-0.329l-29.064-34.872h44.472C375.92,224.112,401.608,245.512,404.056,272.112L404.056,272.112z
	 M324.056,208.112h-32v-22.056c0.568-0.648,1.168-1.272,1.704-1.944h20.064l8.056-24.184c0.736,0,1.456-0.136,2.176-0.224V208.112z
	 M327.664,142.592l4-11.952l-15.2-5.056l-6.176,18.528h-2.232v-40h12c11.046,0.022,19.982,8.994,19.96,20.04
	C340,132.229,335.127,139.504,327.664,142.592z M197,31.408c35.668-25.985,85.648-18.136,111.633,17.532
	c8.447,11.595,13.617,25.25,14.967,39.532c-1.174-0.181-2.357-0.301-3.544-0.36h-19.752c-11.175-9.098-19.697-21.036-24.672-34.56
	l-6.968-20.496l-8.04,20.088c-8.912,22.288-42.888,36.8-64.568,44.056v-9.088h-28c-1.187,0.059-2.37,0.179-3.544,0.36
	C166.703,65.687,178.525,44.923,197,31.408z M168.056,104.112h12v40h-12c-11.046,0-20-8.954-20-20S157.01,104.112,168.056,104.112z
	 M164.056,159.704c1.324,0.213,2.66,0.349,4,0.408h14.12c2.557,9.605,7.308,18.486,13.88,25.944v22.056h-32V159.704z"/>
<g>
</g>
<g>
</g>
<g>
</g>
<g>
</g>
<g>
</g>
<g>
</g>
<g>
</g>
<g>
</g>
<g>
</g>
<g>
</g>
<g>
</g>
<g>
</g>
<g>
</g>
<g>
</g>
<g>
</g>
</svg>
